<svg xmlns="http://www.w3.org/2000/svg" width="540" height="228" fill="none"><g filter="url(#a)" opacity=".4"><path fill="url(#b)" d="M451 58.94a8 8 0 0 1 5.445-7.58l73-24.607C534.63 25.005 540 28.862 540 34.333V183.08c0 5.739-5.864 9.611-11.141 7.358l-73-31.169a8 8 0 0 1-4.859-7.357V58.94z"/></g><g filter="url(#c)" opacity=".8"><path fill="url(#d)" d="M402 58.94a8 8 0 0 1 5.445-7.58l73-24.607C485.63 25.005 491 28.862 491 34.333V183.08c0 5.739-5.864 9.611-11.141 7.358l-73-31.169a8 8 0 0 1-4.859-7.357V58.94z" shape-rendering="crispEdges"/></g><g filter="url(#e)" opacity=".4"><path fill="url(#f)" d="M88 58.92a8 8 0 0 0-5.419-7.572l-72-24.546C5.391 25.032 0 28.891 0 34.374v148.652c0 5.753 5.89 9.625 11.171 7.345l72-31.091A8 8 0 0 0 88 151.935V58.92z"/></g><g filter="url(#g)" opacity=".8"><path fill="url(#h)" d="M136 58.92a8 8 0 0 0-5.419-7.572l-72-24.546C53.391 25.032 48 28.891 48 34.374v148.652c0 5.753 5.89 9.625 11.172 7.345l71.999-31.091a8 8 0 0 0 4.829-7.345V58.92z" shape-rendering="crispEdges"/></g><g clip-path="url(#i)"><g filter="url(#j)" shape-rendering="crispEdges"><path fill="url(#k)" d="M230 66.572a17 17 0 0 0-13.002-16.523l-90-21.774C116.3 25.687 106 33.792 106 44.798v127.407c0 11.429 11.053 19.603 21.981 16.254l90-27.581A17.001 17.001 0 0 0 230 144.624V66.572z"/><path stroke="url(#l)" d="m216.88 50.535-90-21.774c-10.383-2.512-20.38 5.354-20.38 16.037v127.407c0 11.093 10.728 19.026 21.335 15.776l90-27.581a16.5 16.5 0 0 0 11.665-15.776V66.572a16.5 16.5 0 0 0-12.62-16.037z"/><path stroke="url(#m)" d="m216.88 50.535-90-21.774c-10.383-2.512-20.38 5.354-20.38 16.037v127.407c0 11.093 10.728 19.026 21.335 15.776l90-27.581a16.5 16.5 0 0 0 11.665-15.776V66.572a16.5 16.5 0 0 0-12.62-16.037z"/></g><g filter="url(#n)" opacity=".4"><path fill="url(#o)" d="M129 95.01c0-2.19.898-4.284 2.483-5.794l30.28-28.83a6 6 0 0 1 8.535.263l27.566 29.702A8 8 0 0 1 200 95.793v33.143a8 8 0 0 1-6.49 7.856l-55 10.574c-4.933.949-9.51-2.832-9.51-7.856v-44.5z"/></g><g filter="url(#p)" opacity=".9"><path fill="url(#q)" d="M140 99.01c0-2.19.898-4.284 2.483-5.794l30.28-28.83a6 6 0 0 1 8.535.263l27.566 29.702A8 8 0 0 1 211 99.793v33.143a8 8 0 0 1-6.49 7.856l-55 10.574c-4.933.949-9.51-2.832-9.51-7.856v-44.5z"/></g><mask id="v" width="124" height="163" x="106" y="27" maskUnits="userSpaceOnUse" style="mask-type:alpha"><path fill="url(#r)" d="m216.88 50.535-90-21.774c-10.383-2.512-20.38 5.354-20.38 16.037v127.407c0 11.093 10.728 19.026 21.335 15.776l90-27.581a16.5 16.5 0 0 0 11.665-15.776V66.572a16.5 16.5 0 0 0-12.62-16.037z" shape-rendering="crispEdges"/><path stroke="url(#s)" d="m216.88 50.535-90-21.774c-10.383-2.512-20.38 5.354-20.38 16.037v127.407c0 11.093 10.728 19.026 21.335 15.776l90-27.581a16.5 16.5 0 0 0 11.665-15.776V66.572a16.5 16.5 0 0 0-12.62-16.037z" shape-rendering="crispEdges"/><path stroke="url(#t)" d="m216.88 50.535-90-21.774c-10.383-2.512-20.38 5.354-20.38 16.037v127.407c0 11.093 10.728 19.026 21.335 15.776l90-27.581a16.5 16.5 0 0 0 11.665-15.776V66.572a16.5 16.5 0 0 0-12.62-16.037z" shape-rendering="crispEdges"/></mask><g filter="url(#u)" mask="url(#v)" opacity=".2"><ellipse cx="189.5" cy="131.695" fill="url(#w)" rx="79.5" ry="78.5"/></g></g><g clip-path="url(#x)"><g filter="url(#y)" opacity=".3"><circle cx="289" cy="106.195" r="65" fill="url(#z)"/></g><path fill="url(#A)" fill-rule="evenodd" d="M235.55 105.695h-.05v-1h.05a.5.5 0 0 1 0 1zm3.479-.5a.5.5 0 0 1 .5-.5h.099a.5.5 0 0 1 0 1h-.099a.5.5 0 0 1-.5-.5zm4.078 0a.5.5 0 0 1 .5-.5h.099a.5.5 0 0 1 0 1h-.099a.5.5 0 0 1-.5-.5zm4.078 0a.5.5 0 0 1 .5-.5h.1a.5.5 0 0 1 0 1h-.1a.5.5 0 0 1-.5-.5zm4.079 0a.5.5 0 0 1 .5-.5h.099a.5.5 0 0 1 0 1h-.099a.5.5 0 0 1-.5-.5zm4.078 0a.5.5 0 0 1 .5-.5h.099a.5.5 0 0 1 0 1h-.099a.5.5 0 0 1-.5-.5zm4.078 0a.5.5 0 0 1 .5-.5h.098a.5.5 0 0 1-.002 1h-.096a.5.5 0 0 1-.5-.5zm58.235.5h-.047a.5.5 0 0 1-.002-1h.095a.5.5 0 1 1 0 1h-.046zm3.288-.5a.5.5 0 0 1 .5-.5h.093a.5.5 0 1 1 0 1h-.093a.5.5 0 0 1-.5-.5zm3.835 0a.5.5 0 0 1 .5-.5h.094a.5.5 0 0 1 0 1h-.094a.5.5 0 0 1-.5-.5zm3.835 0a.5.5 0 0 1 .5-.5h.094a.5.5 0 0 1 0 1h-.094a.5.5 0 0 1-.5-.5zm3.835 0a.5.5 0 0 1 .5-.5h.094a.5.5 0 0 1 0 1h-.094a.5.5 0 0 1-.5-.5zm3.835 0a.5.5 0 0 1 .5-.5h.094a.5.5 0 0 1 0 1h-.094a.5.5 0 0 1-.5-.5zm3.835 0a.5.5 0 0 1 .5-.5h.094a.5.5 0 0 1 0 1h-.094a.5.5 0 0 1-.5-.5zm3.835 0a.5.5 0 0 1 .5-.5h.047v1h-.047a.5.5 0 0 1-.5-.5zm-80.697.313a.502.502 0 0 1 .599-.377l.094.022a.5.5 0 0 1-.227.974l-.089-.021a.5.5 0 0 1-.377-.598zm51.064.009a.5.5 0 0 1-.375.6l-.09.021a.5.5 0 1 1-.23-.973l.095-.022a.5.5 0 0 1 .6.374zm-47.398 1.156a.499.499 0 0 1 .667-.232l.087.042a.5.5 0 1 1-.44.898l-.082-.04a.499.499 0 0 1-.232-.668zm43.69.041a.5.5 0 0 1-.228.669l-.083.041a.5.5 0 1 1-.446-.895l.088-.043a.5.5 0 0 1 .669.228zm-40.381 1.918a.5.5 0 0 1 .703-.077l.076.061a.501.501 0 0 1-.631.776l-.071-.057a.5.5 0 0 1-.077-.703zm37.043.091a.5.5 0 0 1-.07.703l-.072.059a.5.5 0 1 1-.637-.77l.075-.062a.5.5 0 0 1 .704.07zm-34.258 2.561a.502.502 0 0 1 .703.084l.029.038.026.033a.5.5 0 0 1-.787.616l-.026-.033-.028-.035a.5.5 0 0 1 .083-.703zm31.465.155c.219.168.26.482.091.701l-.028.036-.022.029a.5.5 0 1 1-.794-.607l.022-.029.03-.039a.499.499 0 0 1 .701-.091zm-1.812 2.368c.22.167.262.481.094.7l-.022.029-.03.039a.5.5 0 0 1-.793-.609l.028-.037.022-.029a.5.5 0 0 1 .701-.093zm-27.552.158a.5.5 0 0 1 .702.086l.026.032.028.037a.5.5 0 1 1-.785.618l-.031-.038-.025-.033a.5.5 0 0 1 .085-.702zm24.967 2.711a.5.5 0 0 1-.064.705l-.074.062a.5.5 0 0 1-.637-.772l.071-.058a.5.5 0 0 1 .704.063zm-22.344.132a.5.5 0 0 1 .703-.072l.071.058a.5.5 0 0 1-.627.779l-.075-.061a.5.5 0 0 1-.072-.704zm19.169 2.085a.5.5 0 0 1-.223.671l-.087.043a.501.501 0 0 1-.443-.897l.082-.041a.5.5 0 0 1 .671.224zm-15.969.094a.5.5 0 0 1 .668-.231l.083.04a.5.5 0 1 1-.432.901l-.088-.042a.5.5 0 0 1-.231-.668zm12.372 1.337a.5.5 0 0 1-.37.603l-.095.022a.5.5 0 1 1-.227-.974l.089-.021a.5.5 0 0 1 .603.37zm-8.758.052a.5.5 0 0 1 .598-.377l.09.02a.5.5 0 1 1-.216.976l-.095-.021a.5.5 0 0 1-.377-.598zm4.93.53a.5.5 0 0 1-.496.504l-.097.001a.5.5 0 0 1-.004-1l.092-.001a.502.502 0 0 1 .505.496z" clip-rule="evenodd"/><g filter="url(#B)"><rect width="20.987" height="20.987" x="278" y="96.195" fill="url(#C)" rx="10.493"/><rect width="20.154" height="20.154" x="278.417" y="96.612" stroke="url(#D)" stroke-width=".833" rx="10.077"/></g><g filter="url(#E)"><path fill="url(#F)" fill-rule="evenodd" d="M288.676 102.371a.598.598 0 0 1 .848 0l4 4a.598.598 0 0 1 0 .848l-4 4a.6.6 0 0 1-.848-.848l2.975-2.976H283.6a.6.6 0 0 1 0-1.2h8.051l-2.975-2.976a.598.598 0 0 1 0-.848z" clip-rule="evenodd"/></g><g filter="url(#G)"><circle cx="235" cy="105.195" r="2" fill="url(#H)"/></g><g filter="url(#I)"><circle cx="345" cy="105.195" r="2" fill="url(#J)"/></g></g><g filter="url(#K)"><path fill="url(#L)" d="M349 58.92a8 8 0 0 1 5.419-7.572l72-24.546c5.19-1.77 10.581 2.089 10.581 7.572v148.652c0 5.753-5.89 9.625-11.171 7.345l-72-31.091a8 8 0 0 1-4.829-7.345V58.92z" shape-rendering="crispEdges"/></g><g filter="url(#M)"><path fill="url(#N)" d="M419 101.639a9.001 9.001 0 0 0-1.746-5.327l-22.688-30.9c-2.316-3.153-6.982-3.283-9.469-.262l-22.045 26.777a8.998 8.998 0 0 0-2.052 5.72v34.629a9 9 0 0 0 6.754 8.715l40 10.306c5.696 1.468 11.246-2.833 11.246-8.715v-40.943z"/></g><path stroke="url(#O)" stroke-width=".478" d="M361.239 97.648v34.628a8.763 8.763 0 0 0 6.575 8.484l40 10.306c5.545 1.428 10.947-2.758 10.947-8.484v-40.943a8.767 8.767 0 0 0-1.699-5.185l-22.689-30.9c-2.224-3.028-6.704-3.152-9.091-.252L363.236 92.08a8.762 8.762 0 0 0-1.997 5.569z"/><mask id="Q" width="58" height="88" x="361" y="63" maskUnits="userSpaceOnUse" style="mask-type:alpha"><path fill="url(#P)" d="M418.34 101.732a8.806 8.806 0 0 0-1.695-5.195l-22.053-30.208c-2.267-3.104-6.855-3.231-9.289-.257L363.88 92.243a8.81 8.81 0 0 0-1.993 5.581v33.923a8.81 8.81 0 0 0 6.6 8.529l38.832 10.063c5.579 1.446 11.021-2.766 11.021-8.529v-40.078z"/></mask><g mask="url(#Q)"><g filter="url(#R)" opacity=".2"><path fill="url(#S)" d="m366.522 102.695 13.631-.5v14.5l-13.631-.5v-13.5z"/></g><g filter="url(#T)"><path fill="url(#U)" d="m394.832 117.195 14.679 1v17l-14.679-1.5v-16.5z"/></g><path stroke="url(#V)" stroke-width=".478" d="M380.153 56.195h14.679v98h-14.679z"/><path stroke="url(#W)" stroke-width=".478" d="M409.511 56.195h14.679v98h-14.679z"/><path stroke="url(#X)" stroke-width=".478" d="m334.423 90.717-1.973-9.873 101.82-11.171 1.973 15.873-101.82 5.171z"/><path stroke="url(#Y)" stroke-width=".478" d="m333.242 114.336-.487-10.992 103.183-2.649v18.395l-102.696-4.754z"/><path stroke="url(#Z)" stroke-width=".478" d="m333.242 140.388-.486-13.992 101.919 11.955v17.396l-101.433-15.359z"/><path stroke="url(#aa)" stroke-width=".478" d="M351.843 56.195h14.679v98h-14.679z"/></g><defs><radialGradient id="b" cx="0" cy="0" r="1" gradientTransform="matrix(.90376 220.53415 -114.11204 .46764 495.5 23.195)" gradientUnits="userSpaceOnUse"><stop stop-color="#353535"/><stop offset="1" stop-color="#1C1C1C" stop-opacity=".66"/></radialGradient><radialGradient id="d" cx="0" cy="0" r="1" gradientTransform="matrix(.90376 220.53415 -114.11204 .46764 446.5 23.195)" gradientUnits="userSpaceOnUse"><stop stop-color="#353535"/><stop offset="1" stop-color="#1C1C1C" stop-opacity=".66"/></radialGradient><radialGradient id="f" cx="0" cy="0" r="1" gradientTransform="matrix(-.89337 220.5342 -112.83007 -.45707 44 23.195)" gradientUnits="userSpaceOnUse"><stop stop-color="#353535"/><stop offset="1" stop-color="#1C1C1C" stop-opacity=".66"/></radialGradient><radialGradient id="h" cx="0" cy="0" r="1" gradientTransform="matrix(-.89337 220.5342 -112.83007 -.45707 92 23.195)" gradientUnits="userSpaceOnUse"><stop stop-color="#353535"/><stop offset="1" stop-color="#1C1C1C" stop-opacity=".66"/></radialGradient><radialGradient id="k" cx="0" cy="0" r="1" gradientTransform="matrix(-56.39664 -127.44638 144.36034 -63.88129 214.313 165.665)" gradientUnits="userSpaceOnUse"><stop stop-color="#1B1B1B"/><stop offset="1" stop-color="#282828" stop-opacity=".93"/></radialGradient><radialGradient id="l" cx="0" cy="0" r="1" gradientTransform="rotate(-104.081 170.043 14.339) scale(207.239 472.74)" gradientUnits="userSpaceOnUse"><stop stop-color="#242424"/><stop offset="1" stop-color="#383838"/></radialGradient><radialGradient id="m" cx="0" cy="0" r="1" gradientTransform="matrix(177.29343 302.50014 -63.79621 37.39056 71.702 -40.805)" gradientUnits="userSpaceOnUse"><stop stop-color="#FF7351" stop-opacity="0"/><stop offset=".475" stop-color="#F35630" stop-opacity=".73"/><stop offset="1" stop-color="#F45831" stop-opacity="0"/></radialGradient><radialGradient id="o" cx="0" cy="0" r="1" gradientTransform="matrix(.7208 114.11372 -91.03138 .575 164.5 56.195)" gradientUnits="userSpaceOnUse"><stop stop-color="#8D8D8D"/><stop offset="1" stop-color="#1C1C1C" stop-opacity=".66"/></radialGradient><radialGradient id="q" cx="0" cy="0" r="1" gradientTransform="matrix(.7208 114.11372 -91.03138 .575 175.5 60.195)" gradientUnits="userSpaceOnUse"><stop stop-color="#8D8D8D"/><stop offset="1" stop-color="#1C1C1C" stop-opacity=".66"/></radialGradient><radialGradient id="r" cx="0" cy="0" r="1" gradientTransform="matrix(-56.39664 -127.44638 144.36034 -63.88129 214.313 165.665)" gradientUnits="userSpaceOnUse"><stop stop-color="#1B1B1B"/><stop offset="1" stop-color="#282828" stop-opacity=".93"/></radialGradient><radialGradient id="s" cx="0" cy="0" r="1" gradientTransform="rotate(-104.081 170.043 14.339) scale(207.239 472.74)" gradientUnits="userSpaceOnUse"><stop stop-color="#242424"/><stop offset="1" stop-color="#383838"/></radialGradient><radialGradient id="t" cx="0" cy="0" r="1" gradientTransform="matrix(177.29343 302.50014 -63.79621 37.39056 71.702 -40.805)" gradientUnits="userSpaceOnUse"><stop stop-color="#FF7351" stop-opacity="0"/><stop offset=".475" stop-color="#F35630" stop-opacity=".73"/><stop offset="1" stop-color="#F45831" stop-opacity="0"/></radialGradient><radialGradient id="w" cx="0" cy="0" r="1" gradientTransform="matrix(0 78.5 -74.1763 0 189.5 131.695)" gradientUnits="userSpaceOnUse"><stop offset=".096" stop-color="#FF7A00"/><stop offset=".25" stop-color="#FF7146"/><stop offset=".81" stop-color="#FF6B3F" stop-opacity="0"/></radialGradient><radialGradient id="z" cx="0" cy="0" r="1" gradientTransform="matrix(0 65 -60.6473 0 289 106.195)" gradientUnits="userSpaceOnUse"><stop offset=".096" stop-color="#FF7A00"/><stop offset=".25" stop-color="#FF7146"/><stop offset=".81" stop-color="#FF6B3F" stop-opacity="0"/></radialGradient><radialGradient id="D" cx="0" cy="0" r="1" gradientTransform="rotate(113.356 112.58 149.286) scale(25.146)" gradientUnits="userSpaceOnUse"><stop stop-color="#FCDAD2"/><stop offset=".475" stop-color="#F35630"/><stop offset="1" stop-color="#651A07"/></radialGradient><radialGradient id="F" cx="0" cy="0" r="1" gradientTransform="matrix(-8.27972 6.80806 -5.6582 -6.8813 292.299 105.047)" gradientUnits="userSpaceOnUse"><stop stop-color="#fff"/><stop offset="1" stop-color="#666"/></radialGradient><radialGradient id="H" cx="0" cy="0" r="1" gradientTransform="rotate(94.643 70.864 159.676) scale(6.75766 5.27045)" gradientUnits="userSpaceOnUse"><stop stop-color="#FAAD81"/><stop offset="1" stop-color="#F14924"/></radialGradient><radialGradient id="J" cx="0" cy="0" r="1" gradientTransform="rotate(94.643 125.864 210.39) scale(6.75766 5.27045)" gradientUnits="userSpaceOnUse"><stop stop-color="#FAAD81"/><stop offset="1" stop-color="#F14924"/></radialGradient><radialGradient id="L" cx="0" cy="0" r="1" gradientTransform="matrix(.89337 220.5342 -112.83007 .45707 393 23.195)" gradientUnits="userSpaceOnUse"><stop stop-color="#353535"/><stop offset="1" stop-color="#1C1C1C" stop-opacity=".66"/></radialGradient><radialGradient id="S" cx="0" cy="0" r="1" gradientTransform="rotate(-154.093 206.394 14.224) scale(22.73 17.5464)" gradientUnits="userSpaceOnUse"><stop stop-color="#6D6D6D"/><stop offset="1" stop-color="#1C1C1C" stop-opacity=".66"/></radialGradient><radialGradient id="U" cx="0" cy="0" r="1" gradientTransform="rotate(-154.093 222.504 19.468) scale(22.73 17.5464)" gradientUnits="userSpaceOnUse"><stop stop-color="#F35530" stop-opacity=".7"/><stop offset=".975" stop-color="#FF7538" stop-opacity=".23"/></radialGradient><filter id="a" width="89" height="165.872" x="451" y="26.327" color-interpolation-filters="sRGB" filterUnits="userSpaceOnUse"><feFlood flood-opacity="0" result="BackgroundImageFix"/><feBlend in="SourceGraphic" in2="BackgroundImageFix" result="shape"/><feColorMatrix in="SourceAlpha" result="hardAlpha" values="0 0 0 0 0 0 0 0 0 0 0 0 0 0 0 0 0 0 127 0"/><feOffset dy="1.11"/><feGaussianBlur stdDeviation=".555"/><feComposite in2="hardAlpha" k2="-1" k3="1" operator="arithmetic"/><feColorMatrix values="0 0 0 0 1 0 0 0 0 1 0 0 0 0 1 0 0 0 0.09 0"/><feBlend in2="shape" result="effect1_innerShadow_4348_1096"/></filter><filter id="c" width="148.8" height="224.561" x="385.1" y=".427" color-interpolation-filters="sRGB" filterUnits="userSpaceOnUse"><feFlood flood-opacity="0" result="BackgroundImageFix"/><feColorMatrix in="SourceAlpha" result="hardAlpha" values="0 0 0 0 0 0 0 0 0 0 0 0 0 0 0 0 0 0 127 0"/><feOffset dx="13" dy="4"/><feGaussianBlur stdDeviation="14.95"/><feComposite in2="hardAlpha" operator="out"/><feColorMatrix values="0 0 0 0 0 0 0 0 0 0 0 0 0 0 0 0 0 0 0.25 0"/><feBlend in2="BackgroundImageFix" result="effect1_dropShadow_4348_1096"/><feBlend in="SourceGraphic" in2="effect1_dropShadow_4348_1096" result="shape"/><feColorMatrix in="SourceAlpha" result="hardAlpha" values="0 0 0 0 0 0 0 0 0 0 0 0 0 0 0 0 0 0 127 0"/><feOffset dy="1.11"/><feGaussianBlur stdDeviation=".555"/><feComposite in2="hardAlpha" k2="-1" k3="1" operator="arithmetic"/><feColorMatrix values="0 0 0 0 1 0 0 0 0 1 0 0 0 0 1 0 0 0 0.09 0"/><feBlend in2="shape" result="effect2_innerShadow_4348_1096"/></filter><filter id="e" width="88" height="165.777" x="0" y="26.368" color-interpolation-filters="sRGB" filterUnits="userSpaceOnUse"><feFlood flood-opacity="0" result="BackgroundImageFix"/><feBlend in="SourceGraphic" in2="BackgroundImageFix" result="shape"/><feColorMatrix in="SourceAlpha" result="hardAlpha" values="0 0 0 0 0 0 0 0 0 0 0 0 0 0 0 0 0 0 127 0"/><feOffset dy="1.11"/><feGaussianBlur stdDeviation=".555"/><feComposite in2="hardAlpha" k2="-1" k3="1" operator="arithmetic"/><feColorMatrix values="0 0 0 0 1 0 0 0 0 1 0 0 0 0 1 0 0 0 0.09 0"/><feBlend in2="shape" result="effect1_innerShadow_4348_1096"/></filter><filter id="g" width="147.8" height="224.467" x="4.1" y=".468" color-interpolation-filters="sRGB" filterUnits="userSpaceOnUse"><feFlood flood-opacity="0" result="BackgroundImageFix"/><feColorMatrix in="SourceAlpha" result="hardAlpha" values="0 0 0 0 0 0 0 0 0 0 0 0 0 0 0 0 0 0 127 0"/><feOffset dx="-14" dy="4"/><feGaussianBlur stdDeviation="14.95"/><feComposite in2="hardAlpha" operator="out"/><feColorMatrix values="0 0 0 0 0 0 0 0 0 0 0 0 0 0 0 0 0 0 0.25 0"/><feBlend in2="BackgroundImageFix" result="effect1_dropShadow_4348_1096"/><feBlend in="SourceGraphic" in2="effect1_dropShadow_4348_1096" result="shape"/><feColorMatrix in="SourceAlpha" result="hardAlpha" values="0 0 0 0 0 0 0 0 0 0 0 0 0 0 0 0 0 0 127 0"/><feOffset dy="1.11"/><feGaussianBlur stdDeviation=".555"/><feComposite in2="hardAlpha" k2="-1" k3="1" operator="arithmetic"/><feColorMatrix values="0 0 0 0 1 0 0 0 0 1 0 0 0 0 1 0 0 0 0.09 0"/><feBlend in2="shape" result="effect2_innerShadow_4348_1096"/></filter><filter id="j" width="188" height="225.426" x="63" y="1.79" color-interpolation-filters="sRGB" filterUnits="userSpaceOnUse"><feFlood flood-opacity="0" result="BackgroundImageFix"/><feColorMatrix in="SourceAlpha" result="hardAlpha" values="0 0 0 0 0 0 0 0 0 0 0 0 0 0 0 0 0 0 127 0"/><feOffset dy="1"/><feGaussianBlur stdDeviation="1"/><feComposite in2="hardAlpha" operator="out"/><feColorMatrix values="0 0 0 0 0 0 0 0 0 0 0 0 0 0 0 0 0 0 0.25 0"/><feBlend in2="BackgroundImageFix" result="effect1_dropShadow_4348_1096"/><feColorMatrix in="SourceAlpha" result="hardAlpha" values="0 0 0 0 0 0 0 0 0 0 0 0 0 0 0 0 0 0 127 0"/><feOffset dx="-11" dy="6"/><feGaussianBlur stdDeviation="16"/><feComposite in2="hardAlpha" operator="out"/><feColorMatrix values="0 0 0 0 0 0 0 0 0 0 0 0 0 0 0 0 0 0 0.25 0"/><feBlend in2="effect1_dropShadow_4348_1096" result="effect2_dropShadow_4348_1096"/><feBlend in="SourceGraphic" in2="effect2_dropShadow_4348_1096" result="shape"/><feColorMatrix in="SourceAlpha" result="hardAlpha" values="0 0 0 0 0 0 0 0 0 0 0 0 0 0 0 0 0 0 127 0"/><feMorphology in="SourceAlpha" radius="7" result="effect3_innerShadow_4348_1096"/><feOffset dy="1"/><feGaussianBlur stdDeviation="12"/><feComposite in2="hardAlpha" k2="-1" k3="1" operator="arithmetic"/><feColorMatrix values="0 0 0 0 0.0939779 0 0 0 0 0.0939779 0 0 0 0 0.0939779 0 0 0 1 0"/><feBlend in2="shape" result="effect3_innerShadow_4348_1096"/></filter><filter id="n" width="71" height="89.892" x="129" y="58.731" color-interpolation-filters="sRGB" filterUnits="userSpaceOnUse"><feFlood flood-opacity="0" result="BackgroundImageFix"/><feBlend in="SourceGraphic" in2="BackgroundImageFix" result="shape"/><feColorMatrix in="SourceAlpha" result="hardAlpha" values="0 0 0 0 0 0 0 0 0 0 0 0 0 0 0 0 0 0 127 0"/><feOffset dy="1.11"/><feGaussianBlur stdDeviation=".555"/><feComposite in2="hardAlpha" k2="-1" k3="1" operator="arithmetic"/><feColorMatrix values="0 0 0 0 1 0 0 0 0 1 0 0 0 0 1 0 0 0 0.09 0"/><feBlend in2="shape" result="effect1_innerShadow_4348_1096"/></filter><filter id="p" width="71" height="89.892" x="140" y="62.731" color-interpolation-filters="sRGB" filterUnits="userSpaceOnUse"><feFlood flood-opacity="0" result="BackgroundImageFix"/><feBlend in="SourceGraphic" in2="BackgroundImageFix" result="shape"/><feColorMatrix in="SourceAlpha" result="hardAlpha" values="0 0 0 0 0 0 0 0 0 0 0 0 0 0 0 0 0 0 127 0"/><feOffset dy="1.11"/><feGaussianBlur stdDeviation=".555"/><feComposite in2="hardAlpha" k2="-1" k3="1" operator="arithmetic"/><feColorMatrix values="0 0 0 0 1 0 0 0 0 1 0 0 0 0 1 0 0 0 0.09 0"/><feBlend in2="shape" result="effect1_innerShadow_4348_1096"/></filter><filter id="u" width="239" height="237" x="70" y="13.195" color-interpolation-filters="sRGB" filterUnits="userSpaceOnUse"><feFlood flood-opacity="0" result="BackgroundImageFix"/><feBlend in="SourceGraphic" in2="BackgroundImageFix" result="shape"/><feGaussianBlur result="effect1_foregroundBlur_4348_1096" stdDeviation="20"/></filter><filter id="y" width="210" height="210" x="184" y="1.195" color-interpolation-filters="sRGB" filterUnits="userSpaceOnUse"><feFlood flood-opacity="0" result="BackgroundImageFix"/><feBlend in="SourceGraphic" in2="BackgroundImageFix" result="shape"/><feGaussianBlur result="effect1_foregroundBlur_4348_1096" stdDeviation="20"/></filter><filter id="B" width="34.32" height="34.32" x="271.333" y="92.862" color-interpolation-filters="sRGB" filterUnits="userSpaceOnUse"><feFlood flood-opacity="0" result="BackgroundImageFix"/><feColorMatrix in="SourceAlpha" result="hardAlpha" values="0 0 0 0 0 0 0 0 0 0 0 0 0 0 0 0 0 0 127 0"/><feOffset dy=".833"/><feGaussianBlur stdDeviation=".833"/><feComposite in2="hardAlpha" operator="out"/><feColorMatrix values="0 0 0 0 0 0 0 0 0 0 0 0 0 0 0 0 0 0 0.25 0"/><feBlend in2="BackgroundImageFix" result="effect1_dropShadow_4348_1096"/><feColorMatrix in="SourceAlpha" result="hardAlpha" values="0 0 0 0 0 0 0 0 0 0 0 0 0 0 0 0 0 0 127 0"/><feOffset dy="3.333"/><feGaussianBlur stdDeviation="3.333"/><feComposite in2="hardAlpha" operator="out"/><feColorMatrix values="0 0 0 0 0 0 0 0 0 0 0 0 0 0 0 0 0 0 0.25 0"/><feBlend in2="effect1_dropShadow_4348_1096" result="effect2_dropShadow_4348_1096"/><feBlend in="SourceGraphic" in2="effect2_dropShadow_4348_1096" result="shape"/></filter><filter id="E" width="13.875" height="12.375" x="281.413" y="101.401" color-interpolation-filters="sRGB" filterUnits="userSpaceOnUse"><feFlood flood-opacity="0" result="BackgroundImageFix"/><feColorMatrix in="SourceAlpha" result="hardAlpha" values="0 0 0 0 0 0 0 0 0 0 0 0 0 0 0 0 0 0 127 0"/><feOffset dy=".198"/><feGaussianBlur stdDeviation=".099"/><feComposite in2="hardAlpha" operator="out"/><feColorMatrix values="0 0 0 0 0 0 0 0 0 0 0 0 0 0 0 0 0 0 0.25 0"/><feBlend in2="BackgroundImageFix" result="effect1_dropShadow_4348_1096"/><feColorMatrix in="SourceAlpha" result="hardAlpha" values="0 0 0 0 0 0 0 0 0 0 0 0 0 0 0 0 0 0 127 0"/><feOffset dy=".794"/><feGaussianBlur stdDeviation=".794"/><feComposite in2="hardAlpha" operator="out"/><feColorMatrix values="0 0 0 0 0 0 0 0 0 0 0 0 0 0 0 0 0 0 0.25 0"/><feBlend in2="effect1_dropShadow_4348_1096" result="effect2_dropShadow_4348_1096"/><feBlend in="SourceGraphic" in2="effect2_dropShadow_4348_1096" result="shape"/></filter><filter id="G" width="14.52" height="15.835" x="227.74" y="101.88" color-interpolation-filters="sRGB" filterUnits="userSpaceOnUse"><feFlood flood-opacity="0" result="BackgroundImageFix"/><feColorMatrix in="SourceAlpha" result="hardAlpha" values="0 0 0 0 0 0 0 0 0 0 0 0 0 0 0 0 0 0 127 0"/><feOffset dy="5.26"/><feGaussianBlur stdDeviation="2.63"/><feComposite in2="hardAlpha" operator="out"/><feColorMatrix values="0 0 0 0 0.945098 0 0 0 0 0.298039 0 0 0 0 0.152941 0 0 0 0.07 0"/><feBlend in2="BackgroundImageFix" result="effect1_dropShadow_4348_1096"/><feBlend in="SourceGraphic" in2="effect1_dropShadow_4348_1096" result="shape"/><feColorMatrix in="SourceAlpha" result="hardAlpha" values="0 0 0 0 0 0 0 0 0 0 0 0 0 0 0 0 0 0 127 0"/><feOffset dy="-1.315"/><feGaussianBlur stdDeviation=".657"/><feComposite in2="hardAlpha" k2="-1" k3="1" operator="arithmetic"/><feColorMatrix values="0 0 0 0 1 0 0 0 0 1 0 0 0 0 1 0 0 0 0.29 0"/><feBlend in2="shape" result="effect2_innerShadow_4348_1096"/></filter><filter id="I" width="14.52" height="15.835" x="337.74" y="101.88" color-interpolation-filters="sRGB" filterUnits="userSpaceOnUse"><feFlood flood-opacity="0" result="BackgroundImageFix"/><feColorMatrix in="SourceAlpha" result="hardAlpha" values="0 0 0 0 0 0 0 0 0 0 0 0 0 0 0 0 0 0 127 0"/><feOffset dy="5.26"/><feGaussianBlur stdDeviation="2.63"/><feComposite in2="hardAlpha" operator="out"/><feColorMatrix values="0 0 0 0 0.945098 0 0 0 0 0.298039 0 0 0 0 0.152941 0 0 0 0.07 0"/><feBlend in2="BackgroundImageFix" result="effect1_dropShadow_4348_1096"/><feBlend in="SourceGraphic" in2="effect1_dropShadow_4348_1096" result="shape"/><feColorMatrix in="SourceAlpha" result="hardAlpha" values="0 0 0 0 0 0 0 0 0 0 0 0 0 0 0 0 0 0 127 0"/><feOffset dy="-1.315"/><feGaussianBlur stdDeviation=".657"/><feComposite in2="hardAlpha" k2="-1" k3="1" operator="arithmetic"/><feColorMatrix values="0 0 0 0 1 0 0 0 0 1 0 0 0 0 1 0 0 0 0.29 0"/><feBlend in2="shape" result="effect2_innerShadow_4348_1096"/></filter><filter id="K" width="147.8" height="224.467" x="332.1" y=".468" color-interpolation-filters="sRGB" filterUnits="userSpaceOnUse"><feFlood flood-opacity="0" result="BackgroundImageFix"/><feColorMatrix in="SourceAlpha" result="hardAlpha" values="0 0 0 0 0 0 0 0 0 0 0 0 0 0 0 0 0 0 127 0"/><feOffset dx="13" dy="4"/><feGaussianBlur stdDeviation="14.95"/><feComposite in2="hardAlpha" operator="out"/><feColorMatrix values="0 0 0 0 0 0 0 0 0 0 0 0 0 0 0 0 0 0 0.25 0"/><feBlend in2="BackgroundImageFix" result="effect1_dropShadow_4348_1096"/><feBlend in="SourceGraphic" in2="effect1_dropShadow_4348_1096" result="shape"/><feColorMatrix in="SourceAlpha" result="hardAlpha" values="0 0 0 0 0 0 0 0 0 0 0 0 0 0 0 0 0 0 127 0"/><feOffset dy="1.11"/><feGaussianBlur stdDeviation=".555"/><feComposite in2="hardAlpha" k2="-1" k3="1" operator="arithmetic"/><feColorMatrix values="0 0 0 0 1 0 0 0 0 1 0 0 0 0 1 0 0 0 0.09 0"/><feBlend in2="shape" result="effect2_innerShadow_4348_1096"/></filter><filter id="M" width="61.3" height="89.623" x="361" y="61.964" color-interpolation-filters="sRGB" filterUnits="userSpaceOnUse"><feFlood flood-opacity="0" result="BackgroundImageFix"/><feBlend in="SourceGraphic" in2="BackgroundImageFix" result="shape"/><feColorMatrix in="SourceAlpha" result="hardAlpha" values="0 0 0 0 0 0 0 0 0 0 0 0 0 0 0 0 0 0 127 0"/><feOffset dy="-1"/><feGaussianBlur stdDeviation="13.55"/><feComposite in2="hardAlpha" k2="-1" k3="1" operator="arithmetic"/><feColorMatrix values="0 0 0 0 1 0 0 0 0 1 0 0 0 0 1 0 0 0 0.06 0"/><feBlend in2="shape" result="effect1_innerShadow_4348_1096"/><feColorMatrix in="SourceAlpha" result="hardAlpha" values="0 0 0 0 0 0 0 0 0 0 0 0 0 0 0 0 0 0 127 0"/><feOffset dx="5" dy="-1"/><feGaussianBlur stdDeviation="1.65"/><feComposite in2="hardAlpha" k2="-1" k3="1" operator="arithmetic"/><feColorMatrix values="0 0 0 0 0.100863 0 0 0 0 0.100863 0 0 0 0 0.100863 0 0 0 1 0"/><feBlend in2="effect1_innerShadow_4348_1096" result="effect2_innerShadow_4348_1096"/></filter><filter id="R" width="13.63" height="15.61" x="366.522" y="102.195" color-interpolation-filters="sRGB" filterUnits="userSpaceOnUse"><feFlood flood-opacity="0" result="BackgroundImageFix"/><feBlend in="SourceGraphic" in2="BackgroundImageFix" result="shape"/><feColorMatrix in="SourceAlpha" result="hardAlpha" values="0 0 0 0 0 0 0 0 0 0 0 0 0 0 0 0 0 0 127 0"/><feOffset dy="1.11"/><feGaussianBlur stdDeviation=".555"/><feComposite in2="hardAlpha" k2="-1" k3="1" operator="arithmetic"/><feColorMatrix values="0 0 0 0 1 0 0 0 0 1 0 0 0 0 1 0 0 0 0.09 0"/><feBlend in2="shape" result="effect1_innerShadow_4348_1096"/></filter><filter id="T" width="14.679" height="19.11" x="394.832" y="117.195" color-interpolation-filters="sRGB" filterUnits="userSpaceOnUse"><feFlood flood-opacity="0" result="BackgroundImageFix"/><feBlend in="SourceGraphic" in2="BackgroundImageFix" result="shape"/><feColorMatrix in="SourceAlpha" result="hardAlpha" values="0 0 0 0 0 0 0 0 0 0 0 0 0 0 0 0 0 0 127 0"/><feOffset dy="1.11"/><feGaussianBlur stdDeviation=".555"/><feComposite in2="hardAlpha" k2="-1" k3="1" operator="arithmetic"/><feColorMatrix values="0 0 0 0 1 0 0 0 0 1 0 0 0 0 1 0 0 0 0.09 0"/><feBlend in2="shape" result="effect1_innerShadow_4348_1096"/></filter><linearGradient id="A" x1="175.975" x2="396" y1="105.667" y2="105.667" gradientUnits="userSpaceOnUse"><stop offset=".01" stop-color="#F35630" stop-opacity="0"/><stop offset=".175" stop-color="#F35630"/><stop offset=".49" stop-color="#FF987F"/><stop offset=".825" stop-color="#F35630"/><stop offset="1" stop-color="#F35630" stop-opacity="0"/></linearGradient><linearGradient id="C" x1="288.493" x2="288.493" y1="96.195" y2="117.182" gradientUnits="userSpaceOnUse"><stop stop-color="#1B1B1B"/><stop offset="1" stop-color="#282828"/></linearGradient><linearGradient id="N" x1="410.215" x2="332.153" y1="57.753" y2="159.726" gradientUnits="userSpaceOnUse"><stop stop-color="#1E1E1E"/><stop offset="1" stop-color="#121212"/></linearGradient><linearGradient id="O" x1="390" x2="390" y1="66.667" y2="154.195" gradientUnits="userSpaceOnUse"><stop stop-color="#373737"/><stop offset="1" stop-color="#2B2B2B"/></linearGradient><linearGradient id="P" x1="409.789" x2="333.257" y1="58.783" y2="158.184" gradientUnits="userSpaceOnUse"><stop stop-color="#1E1E1E"/><stop offset="1" stop-color="#121212"/></linearGradient><linearGradient id="V" x1="387.492" x2="424.77" y1="63.903" y2="123.712" gradientUnits="userSpaceOnUse"><stop stop-color="#262626"/><stop offset="1" stop-color="#252525"/></linearGradient><linearGradient id="W" x1="416.85" x2="454.128" y1="63.903" y2="123.712" gradientUnits="userSpaceOnUse"><stop stop-color="#262626"/><stop offset="1" stop-color="#252525"/></linearGradient><linearGradient id="X" x1="341.82" x2="406.619" y1="87.696" y2="44.835" gradientUnits="userSpaceOnUse"><stop stop-color="#262626"/><stop offset="1" stop-color="#252525"/></linearGradient><linearGradient id="Y" x1="341.228" x2="412.184" y1="111.58" y2="76.056" gradientUnits="userSpaceOnUse"><stop stop-color="#262626"/><stop offset="1" stop-color="#252525"/></linearGradient><linearGradient id="Z" x1="341.295" x2="419.641" y1="142.412" y2="116.66" gradientUnits="userSpaceOnUse"><stop stop-color="#262626"/><stop offset="1" stop-color="#252525"/></linearGradient><linearGradient id="aa" x1="359.183" x2="396.461" y1="63.903" y2="123.712" gradientUnits="userSpaceOnUse"><stop stop-color="#262626"/><stop offset="1" stop-color="#252525"/></linearGradient><clipPath id="i"><path fill="#fff" d="M63 1h188v227H63z"/></clipPath><clipPath id="x"><path fill="#fff" d="M184 1h210v211H184z"/></clipPath></defs></svg>